<svg xmlns="http://www.w3.org/2000/svg" version="1.0" width="1280.000000pt" height="889.000000pt" viewBox="0 0 1280.000000 889.000000" preserveAspectRatio="xMidYMid meet">
<metadata fill="#ffffff">
Created by potrace 1.15, written by Peter Selinger 2001-2017
</metadata>
<g transform="translate(0.000000,889.000000) scale(0.100000,-0.100000)" fill="#ffffff" stroke="none">
<path d="M1485 8873 c-158 -33 -308 -109 -415 -210 -85 -79 -117 -138 -131 -239 -12 -88 -35 -134 -82 -163 -18 -11 -88 -38 -157 -61 -126 -42 -180 -72 -202 -113 -6 -12 -15 -51 -18 -87 -4 -36 -13 -97 -21 -137 -11 -64 -11 -78 4 -125 25 -79 78 -126 222 -194 l119 -57 -54 -14 c-30 -8 -66 -21 -79 -30 -20 -13 -30 -13 -62 -3 -48 16 -87 6 -101 -25 -10 -22 -8 -29 12 -50 18 -19 34 -25 67 -25 24 0 43 -4 43 -9 0 -5 -27 -7 -59 -4 -57 5 -62 4 -90 -25 -17 -17 -31 -35 -31 -40 0 -22 43 -62 67 -62 25 0 25 -1 9 -25 -9 -14 -29 -58 -45 -98 -50 -124 -50 -124 -103 -129 -27 -3 -57 -13 -68 -23 -23 -21 -26 -57 -7 -74 10 -8 13 -31 10 -81 -4 -74 6 -105 35 -114 14 -5 17 -14 14 -45 -3 -32 1 -42 23 -60 15 -11 34 -21 42 -21 23 0 63 47 63 73 0 16 7 26 20 30 11 3 22 17 25 33 4 16 13 41 21 56 8 14 14 33 14 42 0 9 8 16 19 16 28 0 52 38 45 69 -4 14 -19 42 -34 61 -33 43 -70 114 -70 134 0 9 8 31 17 51 15 32 20 35 49 29 27 -5 38 -1 59 20 14 14 32 26 38 26 7 0 19 6 26 13 13 12 12 -1 -5 -93 -2 -14 -18 -34 -34 -45 -17 -11 -37 -35 -46 -54 -22 -45 -10 -81 33 -101 27 -12 33 -21 33 -47 0 -25 -7 -37 -27 -50 -54 -33 -83 -66 -83 -94 0 -15 5 -31 11 -35 8 -4 3 -12 -13 -20 -14 -7 -31 -27 -38 -44 -10 -25 -10 -34 4 -55 9 -14 23 -25 31 -25 12 0 12 -5 3 -25 -16 -36 3 -75 37 -75 22 0 25 -3 19 -25 -8 -34 19 -75 51 -75 27 0 49 27 60 73 4 16 14 27 24 27 9 0 27 7 40 16 20 14 23 23 19 59 -5 37 -2 43 23 58 21 12 29 24 29 45 0 37 -25 59 -78 68 -23 4 -42 11 -42 16 0 5 10 6 23 2 55 -19 97 1 97 46 0 36 -29 61 -86 71 -26 5 -49 10 -51 12 -1 2 0 47 4 100 l6 97 27 0 c65 0 78 78 25 158 -33 50 -29 102 9 102 29 0 56 29 56 61 0 13 -8 45 -17 71 -9 26 -14 50 -11 54 9 9 60 -21 128 -75 34 -28 82 -58 105 -67 l43 -16 4 -75 c2 -60 0 -77 -12 -80 -50 -16 -73 -29 -100 -56 -16 -17 -30 -34 -30 -39 0 -4 19 -21 42 -38 48 -35 91 -39 111 -10 13 18 15 11 20 -71 11 -151 9 -205 -9 -220 -40 -33 -70 -138 -44 -154 6 -3 -6 -22 -26 -41 -34 -31 -36 -37 -31 -76 4 -32 1 -47 -14 -66 -43 -55 -5 -125 55 -103 14 6 26 7 26 2 0 -5 3 -16 6 -24 3 -9 -7 -22 -30 -36 -19 -12 -39 -35 -45 -51 -5 -16 -21 -42 -35 -56 -13 -15 -27 -38 -31 -51 -6 -26 9 -63 26 -63 7 0 9 -10 5 -24 -13 -53 37 -103 90 -90 34 9 30 -5 -16 -49 -47 -44 -54 -93 -20 -127 58 -58 130 10 114 108 -3 23 -4 56 0 75 5 29 10 34 36 34 60 0 92 68 55 117 -13 17 -13 22 -1 35 14 16 19 39 17 75 0 10 -17 34 -37 53 -33 31 -36 37 -25 59 6 14 11 34 11 44 0 13 7 20 18 20 10 0 23 5 29 11 8 8 16 7 30 -2 47 -29 86 8 99 92 4 23 11 38 18 36 8 -3 10 -140 8 -498 -3 -298 0 -563 7 -669 40 -624 143 -1031 352 -1400 113 -199 160 -333 179 -514 12 -112 4 -274 -30 -551 -35 -292 -60 -587 -70 -844 -6 -140 -12 -256 -13 -257 -1 -2 -21 1 -44 6 -185 42 -521 60 -768 41 -217 -17 -815 -89 -915 -111 -121 -26 -140 -35 -133 -59 8 -30 67 -78 110 -90 56 -16 242 -13 383 5 162 22 401 24 455 5 111 -39 158 -108 170 -246 14 -155 76 -224 255 -280 l55 -17 -3 -68 c-3 -61 -6 -69 -24 -72 -45 -7 -63 -148 -29 -224 33 -73 144 -145 283 -184 154 -43 272 -55 668 -70 175 -6 295 -16 420 -35 146 -22 198 -26 310 -22 191 7 239 25 413 156 143 107 173 116 362 115 112 -1 190 -7 310 -27 88 -15 227 -36 309 -48 82 -11 201 -34 265 -50 64 -17 176 -46 250 -65 80 -21 170 -37 225 -40 50 -3 122 -12 160 -20 99 -21 518 -21 641 0 50 9 124 16 166 16 93 0 124 12 214 84 39 31 81 59 94 63 16 4 143 -23 350 -75 380 -95 454 -110 776 -157 980 -145 1811 -207 3220 -237 827 -18 1299 -16 1443 5 288 45 498 148 532 264 49 164 -146 283 -580 352 -316 51 -551 67 -1527 106 -205 8 -405 20 -445 25 -101 14 -657 142 -868 200 -1090 300 -1520 679 -1880 1655 -32 88 -77 214 -100 280 -415 1204 -909 1872 -1604 2169 -521 223 -1183 204 -2019 -56 -348 -108 -413 -120 -533 -95 -288 61 -486 339 -619 866 -113 450 -170 872 -194 1436 -21 481 -32 671 -47 780 -40 294 -122 497 -264 648 -73 78 -117 111 -219 162 -139 70 -266 88 -406 58z m-739 -1568 c6 -24 0 -44 -10 -34 -11 11 -17 59 -7 59 6 0 13 -11 17 -25z m698 -8 c15 -21 21 -45 23 -100 2 -56 1 -66 -7 -43 -5 16 -23 43 -39 60 -17 17 -37 50 -45 74 l-16 43 32 -3 c20 -2 38 -13 52 -31z m-208 -8 c3 -6 26 -20 50 -31 24 -10 44 -22 45 -26 1 -4 2 -26 3 -50 2 -37 -2 -45 -25 -59 -33 -19 -59 -63 -59 -97 0 -46 65 -88 86 -55 11 18 34 -48 34 -95 0 -39 -3 -42 -46 -65 -68 -37 -94 -100 -55 -135 24 -22 53 -14 81 21 l20 26 0 -32 c0 -26 -11 -43 -51 -82 l-52 -51 -20 21 c-17 17 -21 35 -23 138 -2 65 -6 173 -9 241 -4 100 -3 122 9 122 7 0 33 17 56 38 l44 38 -58 42 c-32 22 -61 42 -65 44 -4 2 -11 15 -15 31 -6 24 -4 27 18 27 14 0 28 -5 32 -11z m234 -231 l0 -61 -25 23 c-30 28 -32 56 -5 63 11 3 20 12 20 21 0 9 2 16 5 16 3 0 5 -28 5 -62z m0 -208 c0 -48 -1 -50 -20 -38 -33 21 -21 83 18 88 1 0 2 -23 2 -50z m-10 -225 c0 -8 -2 -15 -4 -15 -2 0 -6 7 -10 15 -3 8 -1 15 4 15 6 0 10 -7 10 -15z m-150 -173 c0 -13 -12 -22 -22 -16 -10 6 -1 24 13 24 5 0 9 -4 9 -8z m2515 -4704 c185 -119 414 -205 665 -250 111 -19 451 -16 565 5 50 9 105 21 124 27 19 5 37 7 40 5 11 -12 12 -173 1 -214 -7 -27 -28 -61 -56 -91 l-45 -48 -307 -6 c-374 -8 -613 -20 -925 -47 -132 -11 -241 -18 -243 -16 -10 10 -26 427 -19 512 5 84 28 205 41 227 3 5 24 -6 47 -25 23 -19 74 -55 112 -79z m2874 -489 c172 -175 184 -190 151 -183 -19 3 -105 16 -190 28 l-155 22 -3 162 c-1 89 0 162 4 162 3 0 90 -86 193 -191z" fill="#ffffff"/>
<path d="M502 6216 c-61 -66 -67 -144 -12 -161 50 -16 86 44 76 127 -10 82 -17 85 -64 34z" fill="#ffffff"/>
</g>
</svg>